<svg xmlns="http://www.w3.org/2000/svg" xmlns:xlink="http://www.w3.org/1999/xlink" viewBox="0,0,256,256" width="32px" height="32px"><g fill="#f59e24" fill-rule="nonzero" stroke="none" stroke-width="1" stroke-linecap="butt" stroke-linejoin="miter" stroke-miterlimit="10" stroke-dasharray="" stroke-dashoffset="0" font-family="none" font-weight="none" font-size="none" text-anchor="none" style="mix-blend-mode: normal"><g transform="scale(8,8)"><path d="M16.11719,4.10352c-2.969,-0.075 -5.9422,0.92905 -8.2832,2.74805c-2.776,2.136 -4.63598,5.46947 -4.83398,8.98047v1.57813c0.103,1.63 0.53739,3.22169 1.27539,4.67969c1.048,2.047 2.64052,3.7658 4.60352,4.9668c3.692,2.316 8.54433,2.56423 12.48633,0.74023c2.476,-1.127 4.58539,-3.05545 5.90039,-5.43945c0.84,-1.517 1.34723,-3.19387 1.49023,-4.92187c0.025,-0.641 0.025,-1.28283 0,-1.92383c-0.169,-1.908 -0.71181,-3.79525 -1.75781,-5.40625c0.749,1.648 0.95778,3.47372 0.67578,5.26172c-0.269,1.518 -0.95447,2.93203 -1.98047,4.08203c0.107,-0.55 0.29658,-1.07881 0.39258,-1.63281c0.12,-0.712 0.18303,-1.44116 0.08203,-2.16016c-0.093,-1.064 -0.21223,-2.42134 -0.61523,-3.40234c0.005,0.377 -0.026,0.75481 0,1.13281c0.069,1.719 -0.58038,3.80345 -1.60937,5.18945c-0.985,1.357 -2.42713,2.4375 -4.07812,2.8125c-0.726,0.149 -1.5375,0.14714 -2.1875,-0.25586c-0.613,-0.369 -0.95473,-1.07077 -1.05273,-1.75977c-0.137,-1.098 0.12375,-2.21213 0.59375,-3.20312c0.585,-1.224 1.48533,-2.27034 2.61133,-3.02734c0.233,-0.163 0.50855,-0.27972 0.68555,-0.51172c0.637,-0.79 1.28853,-1.57039 2.01953,-2.27539c0.737,-0.748 1.4418,-1.4173 2.2168,-2.0293c-1.468,-0.041 -2.67475,0.55616 -3.96875,1.16016c-1.581,0.777 -3.08056,1.71016 -4.47656,2.78516c-0.888,0.684 -1.37162,1.35475 -2.39062,1.84375c-0.588,0.29 -1.25639,0.36239 -1.90039,0.27539c1.004,0.387 2.11995,0.27194 3.12695,-0.03906c0.625,-0.199 0.87813,-0.35102 1.45313,-0.66601c0.096,-0.071 0.20941,-0.03067 0.31641,-0.01367c-0.005,0.219 0.06014,0.48058 -0.13086,0.64258c-0.47,0.488 -1.03133,0.8777 -1.61133,1.2207c-0.681,0.387 -1.41731,0.69827 -2.19531,0.82227c-0.65,0.124 -1.32267,0.00411 -1.88867,-0.33789c-0.735,-0.462 -1.01605,-1.38484 -0.99805,-2.21484c0.052,-1.222 0.54719,-2.38886 1.24219,-3.38086c1.059,-1.483 2.6117,-2.59534 4.3457,-3.15234c0.699,-0.253 1.43806,-0.34438 2.16406,-0.48437c-0.989,-0.119 -1.99038,-0.2027 -2.98437,-0.0957c-0.994,0.079 -1.96981,0.35009 -2.88281,0.74609c-0.263,0.11 -0.51969,0.24492 -0.80469,0.29492c1.45,-1.613 3.47286,-2.71152 5.63086,-2.97852c1.227,-0.196 1.98617,-0.25058 3.20117,-0.01758c-1.4,-0.502 -2.39381,-0.65181 -3.88281,-0.63281zM20.33789,10.10547c-0.055,0.266 -0.26948,0.47545 -0.52148,0.56445c-0.26,0.104 -0.52869,0.17956 -0.80469,0.22656c0.42,-0.291 0.87417,-0.53901 1.32617,-0.79101z"></path></g></g></svg>